<mxfile host="65bd71144e">
    <diagram id="8tIpybF6OEY9Pi4QSVlz" name="分布式群体智能决策系统架构图">
        <mxGraphModel dx="1386" dy="784" grid="1" gridSize="10" guides="1" tooltips="1" connect="1" arrows="1" fold="1" page="1" pageScale="1" pageWidth="850" pageHeight="1100" math="0" shadow="0">
            <root>
                <mxCell id="0"/>
                <mxCell id="1" parent="0"/>
                <mxCell id="3soxI6nCKQUfm7bMAW4H-1" value="" style="shape=mxgraph.cisco.hubs_and_gateways.cisco_hub;html=1;pointerEvents=1;dashed=0;fillColor=#036897;strokeColor=#ffffff;strokeWidth=2;verticalLabelPosition=bottom;verticalAlign=top;align=center;outlineConnect=0;" parent="1" vertex="1">
                    <mxGeometry x="330" y="60" width="150" height="130" as="geometry"/>
                </mxCell>
                <mxCell id="3soxI6nCKQUfm7bMAW4H-2" value="&lt;font style=&quot;font-size: 21px;&quot;&gt;通信中心&lt;/font&gt;" style="rounded=1;whiteSpace=wrap;html=1;shadow=0;glass=0;labelBackgroundColor=none;labelBorderColor=none;sketch=0;fontSize=20;fillColor=#dae8fc;strokeColor=#6c8ebf;" parent="1" vertex="1">
                    <mxGeometry x="355" y="10" width="100" height="40" as="geometry"/>
                </mxCell>
                <mxCell id="3soxI6nCKQUfm7bMAW4H-3" value="" style="strokeColor=#dddddd;shadow=1;strokeWidth=1;rounded=1;absoluteArcSize=1;arcSize=2;fontSize=21;" parent="1" vertex="1">
                    <mxGeometry x="235" y="280" width="340" height="60" as="geometry"/>
                </mxCell>
                <mxCell id="3soxI6nCKQUfm7bMAW4H-4" value="数据融合和局势感知模块" style="editableCssRules=.*;fontColor=#999999;shape=image;verticalLabelPosition=middle;labelBackgroundColor=#ffffff;verticalAlign=middle;labelPosition=right;align=left;spacingLeft=20;part=1;points=[];imageAspect=0;image=data:image/svg+xml,PHN2ZyB4bWxucz0iaHR0cDovL3d3dy53My5vcmcvMjAwMC9zdmciIHhtbG5zOnY9Imh0dHBzOi8vdmVjdGEuaW8vbmFubyIgd2lkdGg9IjM3Ny4wNDk2OTgzMjc3ODkyNiIgaGVpZ2h0PSIzNzcuMjkxNTcwNzE1Nzg5NzYiIHZpZXdCb3g9IjAuMTMxMDAwNTE4Nzk4ODI4MTIgLTAuMTIxMDAwMDA2Nzk0OTI5NSA5OS43NjEwMDE1ODY5MTQwNiA5OS44MjQ5OTY5NDgyNDIxOSI+JiN4YTs8c3R5bGUgdHlwZT0idGV4dC9jc3MiPiYjeGE7CS5zdDB7ZmlsbDojNjY5ZGY2O30mI3hhOwkuc3Qxe2ZpbGw6IzQyODVmNDt9JiN4YTsJLnN0MntmaWxsOiNhZWNiZmE7fSYjeGE7PC9zdHlsZT4mI3hhOwk8cGF0aCBjbGFzcz0ic3QwIiBkPSJNODAuNTkzIDE5LjE4djIwLjE5OWgxOS4yOTlWOS41M2MwLTIuNTM3LS45NzktNC44NDYtMi41OC02LjU2OHptLTkuOTA4IDYxLjIyNUgxOS40MzFMMy40NSA5Ny4zMzdjMS42OTUgMS40NzQgMy45MDggMi4zNjcgNi4zMzEgMi4zNjdoNzAuNTU1YzIuODczIDAgNS40NTMtMS4yNTYgNy4yMjEtMy4yNDh6Ii8+JiN4YTsJPHBhdGggY2xhc3M9InN0MSIgZD0iTTg3LjU3MyA5Ni40MzdjMS41MDEtMS43MDEgMi40MTMtMy45MzUgMi40MTMtNi4zODJWNjAuMjA0SDcwLjY4NXYyMC4yMDF6Ii8+JiN4YTsJPHBhdGggY2xhc3M9InN0MiIgZD0iTTE5LjQzMSA4MC40MDVWMjkuMzRoMjAuNTc4VjEwLjA0SDkuNzgxYy01LjMzIDAtOS42NSA0LjMyMS05LjY1IDkuNjV2NzAuMzY1Yy4wMDEgMi45MDYgMS4yODYgNS41MTMgMy4zMiA3LjI4MXptNzcuODgtNzcuNDQzQzk1LjU1IDEuMDY2IDkzLjAzNi0uMTIgOTAuMjQ0LS4xMjFINTkuOTUxVjE5LjE4aDIwLjY0M3oiLz4mI3hhOzwvc3ZnPg==;fontSize=21;" parent="3soxI6nCKQUfm7bMAW4H-3" vertex="1">
                    <mxGeometry width="30" height="30" relative="1" as="geometry">
                        <mxPoint x="15" y="15" as="offset"/>
                    </mxGeometry>
                </mxCell>
                <mxCell id="3soxI6nCKQUfm7bMAW4H-5" value="协同决策算法模块" style="strokeWidth=2;html=1;shape=mxgraph.flowchart.decision;whiteSpace=wrap;fontSize=21;fillColor=#dae8fc;strokeColor=#6c8ebf;" parent="1" vertex="1">
                    <mxGeometry x="300" y="448" width="192.5" height="205" as="geometry"/>
                </mxCell>
                <mxCell id="3soxI6nCKQUfm7bMAW4H-16" value="" style="rounded=1;whiteSpace=wrap;html=1;fillColor=#dae8fc;strokeColor=#6c8ebf;" parent="1" vertex="1">
                    <mxGeometry x="120" y="770" width="570" height="200" as="geometry"/>
                </mxCell>
                <mxCell id="3soxI6nCKQUfm7bMAW4H-8" value="" style="shape=image;html=1;verticalAlign=top;verticalLabelPosition=bottom;labelBackgroundColor=#ffffff;imageAspect=0;aspect=fixed;image=https://cdn4.iconfinder.com/data/icons/transportation-190/1000/ship_icebreaker_ship_iceboat_iceberg_icebreaker_ice_boat-128.png;" parent="1" vertex="1">
                    <mxGeometry x="130" y="800" width="128" height="128" as="geometry"/>
                </mxCell>
                <mxCell id="3soxI6nCKQUfm7bMAW4H-6" value="" style="shape=image;html=1;verticalAlign=top;verticalLabelPosition=bottom;labelBackgroundColor=#ffffff;imageAspect=0;aspect=fixed;image=https://cdn4.iconfinder.com/data/icons/transportation-190/1000/transportation_png_new_pt_collection_boat_pt_boat-128.png;" parent="1" vertex="1">
                    <mxGeometry x="258" y="806" width="128" height="128" as="geometry"/>
                </mxCell>
                <mxCell id="3soxI6nCKQUfm7bMAW4H-9" value="" style="shape=image;html=1;verticalAlign=top;verticalLabelPosition=bottom;labelBackgroundColor=#ffffff;imageAspect=0;aspect=fixed;image=https://cdn4.iconfinder.com/data/icons/transportation-190/1000/boat_tugboat_tug_seagoing_tugboats_harbour_tugboats_ship_river_tugboats-128.png;" parent="1" vertex="1">
                    <mxGeometry x="386" y="800" width="128" height="128" as="geometry"/>
                </mxCell>
                <mxCell id="3soxI6nCKQUfm7bMAW4H-7" value="" style="shape=image;html=1;verticalAlign=top;verticalLabelPosition=bottom;labelBackgroundColor=#ffffff;imageAspect=0;aspect=fixed;image=https://cdn4.iconfinder.com/data/icons/transportation-190/1000/transportation_transport_ferry_boat_train_ferry_boat_ship-128.png;" parent="1" vertex="1">
                    <mxGeometry x="520" y="800" width="128" height="128" as="geometry"/>
                </mxCell>
                <mxCell id="3soxI6nCKQUfm7bMAW4H-17" value="无人艇模块" style="rounded=1;whiteSpace=wrap;html=1;shadow=0;glass=0;labelBackgroundColor=none;labelBorderColor=none;sketch=0;fontSize=20;fillColor=#dae8fc;strokeColor=#6c8ebf;" parent="1" vertex="1">
                    <mxGeometry x="530" y="770" width="150" height="60" as="geometry"/>
                </mxCell>
                <mxCell id="3soxI6nCKQUfm7bMAW4H-18" value="" style="outlineConnect=0;dashed=0;verticalLabelPosition=bottom;verticalAlign=top;align=center;html=1;shape=mxgraph.aws3.sensor;fillColor=#5294CF;gradientColor=none;" parent="1" vertex="1">
                    <mxGeometry x="338.5" y="1080" width="133" height="140" as="geometry"/>
                </mxCell>
                <mxCell id="3soxI6nCKQUfm7bMAW4H-19" value="&lt;font style=&quot;font-size: 21px;&quot;&gt;传感器模块&lt;/font&gt;" style="rounded=1;whiteSpace=wrap;html=1;shadow=0;glass=0;labelBackgroundColor=none;labelBorderColor=none;sketch=0;fontSize=20;fillColor=#dae8fc;strokeColor=#6c8ebf;" parent="1" vertex="1">
                    <mxGeometry x="345" y="1230" width="120" height="40" as="geometry"/>
                </mxCell>
                <mxCell id="3soxI6nCKQUfm7bMAW4H-20" value="" style="endArrow=classic;html=1;fontSize=21;strokeWidth=3;" parent="1" edge="1">
                    <mxGeometry width="50" height="50" relative="1" as="geometry">
                        <mxPoint x="400" y="190" as="sourcePoint"/>
                        <mxPoint x="400" y="280" as="targetPoint"/>
                    </mxGeometry>
                </mxCell>
                <mxCell id="3soxI6nCKQUfm7bMAW4H-21" value="" style="endArrow=classic;html=1;fontSize=21;strokeWidth=3;entryX=0.5;entryY=0;entryDx=0;entryDy=0;entryPerimeter=0;" parent="1" target="3soxI6nCKQUfm7bMAW4H-5" edge="1">
                    <mxGeometry width="50" height="50" relative="1" as="geometry">
                        <mxPoint x="400" y="340" as="sourcePoint"/>
                        <mxPoint x="396" y="440" as="targetPoint"/>
                    </mxGeometry>
                </mxCell>
                <mxCell id="3soxI6nCKQUfm7bMAW4H-22" value="" style="endArrow=classic;html=1;fontSize=21;strokeWidth=3;entryX=0.484;entryY=-0.015;entryDx=0;entryDy=0;entryPerimeter=0;" parent="1" target="3soxI6nCKQUfm7bMAW4H-16" edge="1">
                    <mxGeometry width="50" height="50" relative="1" as="geometry">
                        <mxPoint x="395.75" y="653" as="sourcePoint"/>
                        <mxPoint x="395.75" y="743" as="targetPoint"/>
                    </mxGeometry>
                </mxCell>
                <mxCell id="3soxI6nCKQUfm7bMAW4H-23" value="" style="endArrow=classic;html=1;fontSize=21;strokeWidth=3;" parent="1" edge="1">
                    <mxGeometry width="50" height="50" relative="1" as="geometry">
                        <mxPoint x="395.75" y="970" as="sourcePoint"/>
                        <mxPoint x="396" y="1090" as="targetPoint"/>
                    </mxGeometry>
                </mxCell>
            </root>
        </mxGraphModel>
    </diagram>
    <diagram id="6HXWaHyreW_lg8Ddyrr2" name="无人艇集群自适应混合式学习决策架构">
        <mxGraphModel dx="1386" dy="784" grid="1" gridSize="10" guides="1" tooltips="1" connect="1" arrows="1" fold="1" page="1" pageScale="1" pageWidth="850" pageHeight="1100" math="0" shadow="0">
            <root>
                <mxCell id="0"/>
                <mxCell id="1" parent="0"/>
                <mxCell id="k2mBEQyr02FBpVl_nsU6-2" value="" style="rounded=1;whiteSpace=wrap;html=1;fillColor=#dae8fc;strokeColor=#6c8ebf;" parent="1" vertex="1">
                    <mxGeometry x="20" y="70" width="640" height="730" as="geometry"/>
                </mxCell>
                <mxCell id="BG1uEWrnBQ6lP54bjyom-1" value="" style="shape=image;html=1;verticalAlign=top;verticalLabelPosition=bottom;labelBackgroundColor=#ffffff;imageAspect=0;aspect=fixed;image=https://cdn4.iconfinder.com/data/icons/transportation-190/1000/ship_icebreaker_ship_iceboat_iceberg_icebreaker_ice_boat-128.png;" parent="1" vertex="1">
                    <mxGeometry x="61" y="90" width="188" height="188" as="geometry"/>
                </mxCell>
                <mxCell id="k2mBEQyr02FBpVl_nsU6-3" value="&lt;font style=&quot;font-size: 25px;&quot;&gt;无人艇模块 1&lt;/font&gt;" style="text;html=1;align=center;verticalAlign=middle;resizable=0;points=[];autosize=1;strokeColor=#6c8ebf;fillColor=#dae8fc;rounded=1;glass=0;shadow=0;labelBackgroundColor=none;labelBorderColor=none;fontColor=#FF3333;" parent="1" vertex="1">
                    <mxGeometry x="70" y="100" width="170" height="40" as="geometry"/>
                </mxCell>
                <mxCell id="k2mBEQyr02FBpVl_nsU6-4" value="" style="rounded=1;whiteSpace=wrap;html=1;fillColor=#dae8fc;strokeColor=#6c8ebf;" parent="1" vertex="1">
                    <mxGeometry x="180" y="210" width="392.5" height="520" as="geometry"/>
                </mxCell>
                <mxCell id="HdZ0BTLeImGyBjWyNIXU-1" value="" style="outlineConnect=0;dashed=0;verticalLabelPosition=bottom;verticalAlign=top;align=center;html=1;shape=mxgraph.aws3.sensor;fillColor=#5294CF;gradientColor=none;" parent="1" vertex="1">
                    <mxGeometry x="220" y="290" width="100" height="100" as="geometry"/>
                </mxCell>
                <mxCell id="k2mBEQyr02FBpVl_nsU6-5" value="&lt;span style=&quot;font-size: 25px;&quot;&gt;传感器模块&lt;/span&gt;" style="text;html=1;align=center;verticalAlign=middle;resizable=0;points=[];autosize=1;strokeColor=#6c8ebf;fillColor=#dae8fc;rounded=1;glass=0;shadow=0;labelBackgroundColor=none;labelBorderColor=none;fontColor=#FF3333;" parent="1" vertex="1">
                    <mxGeometry x="195" y="238" width="150" height="40" as="geometry"/>
                </mxCell>
                <mxCell id="k2mBEQyr02FBpVl_nsU6-6" value="" style="rounded=1;whiteSpace=wrap;html=1;fillColor=#dae8fc;strokeColor=#6c8ebf;" parent="1" vertex="1">
                    <mxGeometry x="310" y="400" width="230" height="310" as="geometry"/>
                </mxCell>
                <mxCell id="k2mBEQyr02FBpVl_nsU6-1" value="" style="shape=mxgraph.cisco.hubs_and_gateways.cisco_hub;html=1;pointerEvents=1;dashed=0;fillColor=#036897;strokeColor=#ffffff;strokeWidth=2;verticalLabelPosition=bottom;verticalAlign=top;align=center;outlineConnect=0;" parent="1" vertex="1">
                    <mxGeometry x="370" y="505" width="110" height="100" as="geometry"/>
                </mxCell>
                <mxCell id="k2mBEQyr02FBpVl_nsU6-7" value="&lt;span style=&quot;font-size: 25px;&quot;&gt;通信中心&lt;/span&gt;" style="text;html=1;align=center;verticalAlign=middle;resizable=0;points=[];autosize=1;strokeColor=#6c8ebf;fillColor=#dae8fc;rounded=1;glass=0;shadow=0;labelBackgroundColor=none;labelBorderColor=none;fontColor=#FF3333;" parent="1" vertex="1">
                    <mxGeometry x="360" y="450" width="120" height="40" as="geometry"/>
                </mxCell>
                <mxCell id="k2mBEQyr02FBpVl_nsU6-8" value="" style="rounded=1;whiteSpace=wrap;html=1;fillColor=#dae8fc;strokeColor=#6c8ebf;" parent="1" vertex="1">
                    <mxGeometry x="20" y="860" width="640" height="730" as="geometry"/>
                </mxCell>
                <mxCell id="k2mBEQyr02FBpVl_nsU6-10" value="&lt;font style=&quot;font-size: 25px;&quot;&gt;无人艇模块 2&lt;/font&gt;" style="text;html=1;align=center;verticalAlign=middle;resizable=0;points=[];autosize=1;strokeColor=#6c8ebf;fillColor=#dae8fc;rounded=1;glass=0;shadow=0;labelBackgroundColor=none;labelBorderColor=none;fontColor=#FF3333;" parent="1" vertex="1">
                    <mxGeometry x="70" y="890" width="170" height="40" as="geometry"/>
                </mxCell>
                <mxCell id="k2mBEQyr02FBpVl_nsU6-11" value="" style="rounded=1;whiteSpace=wrap;html=1;fillColor=#dae8fc;strokeColor=#6c8ebf;" parent="1" vertex="1">
                    <mxGeometry x="180" y="1000" width="392.5" height="520" as="geometry"/>
                </mxCell>
                <mxCell id="k2mBEQyr02FBpVl_nsU6-12" value="" style="outlineConnect=0;dashed=0;verticalLabelPosition=bottom;verticalAlign=top;align=center;html=1;shape=mxgraph.aws3.sensor;fillColor=#5294CF;gradientColor=none;" parent="1" vertex="1">
                    <mxGeometry x="220" y="1080" width="100" height="100" as="geometry"/>
                </mxCell>
                <mxCell id="k2mBEQyr02FBpVl_nsU6-13" value="&lt;span style=&quot;font-size: 25px;&quot;&gt;传感器模块&lt;/span&gt;" style="text;html=1;align=center;verticalAlign=middle;resizable=0;points=[];autosize=1;strokeColor=#6c8ebf;fillColor=#dae8fc;rounded=1;glass=0;shadow=0;labelBackgroundColor=none;labelBorderColor=none;fontColor=#FF3333;" parent="1" vertex="1">
                    <mxGeometry x="195" y="1028" width="150" height="40" as="geometry"/>
                </mxCell>
                <mxCell id="k2mBEQyr02FBpVl_nsU6-14" value="" style="rounded=1;whiteSpace=wrap;html=1;fillColor=#dae8fc;strokeColor=#6c8ebf;" parent="1" vertex="1">
                    <mxGeometry x="310" y="1190" width="230" height="310" as="geometry"/>
                </mxCell>
                <mxCell id="k2mBEQyr02FBpVl_nsU6-15" value="" style="shape=mxgraph.cisco.hubs_and_gateways.cisco_hub;html=1;pointerEvents=1;dashed=0;fillColor=#036897;strokeColor=#ffffff;strokeWidth=2;verticalLabelPosition=bottom;verticalAlign=top;align=center;outlineConnect=0;" parent="1" vertex="1">
                    <mxGeometry x="370" y="1295" width="110" height="100" as="geometry"/>
                </mxCell>
                <mxCell id="k2mBEQyr02FBpVl_nsU6-16" value="&lt;span style=&quot;font-size: 25px;&quot;&gt;通信中心&lt;/span&gt;" style="text;html=1;align=center;verticalAlign=middle;resizable=0;points=[];autosize=1;strokeColor=#6c8ebf;fillColor=#dae8fc;rounded=1;glass=0;shadow=0;labelBackgroundColor=none;labelBorderColor=none;fontColor=#FF3333;" parent="1" vertex="1">
                    <mxGeometry x="360" y="1240" width="120" height="40" as="geometry"/>
                </mxCell>
                <mxCell id="k2mBEQyr02FBpVl_nsU6-17" value="" style="rounded=1;whiteSpace=wrap;html=1;fillColor=#dae8fc;strokeColor=#6c8ebf;" parent="1" vertex="1">
                    <mxGeometry x="20" y="1660" width="640" height="730" as="geometry"/>
                </mxCell>
                <mxCell id="k2mBEQyr02FBpVl_nsU6-19" value="&lt;font style=&quot;font-size: 25px;&quot;&gt;无人艇模块 3&lt;/font&gt;" style="text;html=1;align=center;verticalAlign=middle;resizable=0;points=[];autosize=1;strokeColor=#6c8ebf;fillColor=#dae8fc;rounded=1;glass=0;shadow=0;labelBackgroundColor=none;labelBorderColor=none;fontColor=#FF3333;" parent="1" vertex="1">
                    <mxGeometry x="70" y="1690" width="170" height="40" as="geometry"/>
                </mxCell>
                <mxCell id="k2mBEQyr02FBpVl_nsU6-20" value="" style="rounded=1;whiteSpace=wrap;html=1;fillColor=#dae8fc;strokeColor=#6c8ebf;" parent="1" vertex="1">
                    <mxGeometry x="180" y="1800" width="392.5" height="520" as="geometry"/>
                </mxCell>
                <mxCell id="k2mBEQyr02FBpVl_nsU6-21" value="" style="outlineConnect=0;dashed=0;verticalLabelPosition=bottom;verticalAlign=top;align=center;html=1;shape=mxgraph.aws3.sensor;fillColor=#5294CF;gradientColor=none;" parent="1" vertex="1">
                    <mxGeometry x="220" y="1880" width="100" height="100" as="geometry"/>
                </mxCell>
                <mxCell id="k2mBEQyr02FBpVl_nsU6-22" value="&lt;span style=&quot;font-size: 25px;&quot;&gt;传感器模块&lt;/span&gt;" style="text;html=1;align=center;verticalAlign=middle;resizable=0;points=[];autosize=1;strokeColor=#6c8ebf;fillColor=#dae8fc;rounded=1;glass=0;shadow=0;labelBackgroundColor=none;labelBorderColor=none;fontColor=#FF3333;" parent="1" vertex="1">
                    <mxGeometry x="195" y="1828" width="150" height="40" as="geometry"/>
                </mxCell>
                <mxCell id="k2mBEQyr02FBpVl_nsU6-23" value="" style="rounded=1;whiteSpace=wrap;html=1;fillColor=#dae8fc;strokeColor=#6c8ebf;" parent="1" vertex="1">
                    <mxGeometry x="310" y="1990" width="230" height="310" as="geometry"/>
                </mxCell>
                <mxCell id="k2mBEQyr02FBpVl_nsU6-24" value="" style="shape=mxgraph.cisco.hubs_and_gateways.cisco_hub;html=1;pointerEvents=1;dashed=0;fillColor=#036897;strokeColor=#ffffff;strokeWidth=2;verticalLabelPosition=bottom;verticalAlign=top;align=center;outlineConnect=0;" parent="1" vertex="1">
                    <mxGeometry x="370" y="2095" width="110" height="100" as="geometry"/>
                </mxCell>
                <mxCell id="k2mBEQyr02FBpVl_nsU6-25" value="&lt;span style=&quot;font-size: 25px;&quot;&gt;通信中心&lt;/span&gt;" style="text;html=1;align=center;verticalAlign=middle;resizable=0;points=[];autosize=1;strokeColor=#6c8ebf;fillColor=#dae8fc;rounded=1;glass=0;shadow=0;labelBackgroundColor=none;labelBorderColor=none;fontColor=#FF3333;" parent="1" vertex="1">
                    <mxGeometry x="360" y="2040" width="120" height="40" as="geometry"/>
                </mxCell>
                <mxCell id="6Xups-yDFlIko5Ntkm_B-1" value="" style="shape=image;html=1;verticalAlign=top;verticalLabelPosition=bottom;labelBackgroundColor=#ffffff;imageAspect=0;aspect=fixed;image=https://cdn4.iconfinder.com/data/icons/transportation-190/1000/transportation_png_new_pt_collection_boat_pt_boat-128.png;" parent="1" vertex="1">
                    <mxGeometry x="72" y="900" width="148" height="148" as="geometry"/>
                </mxCell>
                <mxCell id="u55TkQMTREDT-roaiY3Z-1" value="" style="shape=image;html=1;verticalAlign=top;verticalLabelPosition=bottom;labelBackgroundColor=#ffffff;imageAspect=0;aspect=fixed;image=https://cdn4.iconfinder.com/data/icons/transportation-190/1000/boat_tugboat_tug_seagoing_tugboats_harbour_tugboats_ship_river_tugboats-128.png;" parent="1" vertex="1">
                    <mxGeometry x="72" y="1710" width="148" height="148" as="geometry"/>
                </mxCell>
                <mxCell id="u55TkQMTREDT-roaiY3Z-2" value="集成决策" style="strokeWidth=2;html=1;shape=mxgraph.flowchart.decision;whiteSpace=wrap;fontSize=21;fillColor=#fff2cc;strokeColor=#d6b656;" parent="1" vertex="1">
                    <mxGeometry x="960" y="1180" width="210" height="210" as="geometry"/>
                </mxCell>
                <mxCell id="u55TkQMTREDT-roaiY3Z-3" value="" style="endArrow=classic;html=1;strokeWidth=3;fontSize=21;entryX=0.5;entryY=0;entryDx=0;entryDy=0;entryPerimeter=0;" parent="1" target="u55TkQMTREDT-roaiY3Z-2" edge="1">
                    <mxGeometry width="50" height="50" relative="1" as="geometry">
                        <mxPoint x="660" y="520" as="sourcePoint"/>
                        <mxPoint x="1160" y="520" as="targetPoint"/>
                        <Array as="points">
                            <mxPoint x="1070" y="520"/>
                        </Array>
                    </mxGeometry>
                </mxCell>
                <mxCell id="u55TkQMTREDT-roaiY3Z-4" value="" style="endArrow=classic;html=1;strokeWidth=3;fontSize=21;entryX=0;entryY=0.5;entryDx=0;entryDy=0;entryPerimeter=0;exitX=1.002;exitY=0.582;exitDx=0;exitDy=0;exitPerimeter=0;" parent="1" source="k2mBEQyr02FBpVl_nsU6-8" target="u55TkQMTREDT-roaiY3Z-2" edge="1">
                    <mxGeometry width="50" height="50" relative="1" as="geometry">
                        <mxPoint x="730" y="1260" as="sourcePoint"/>
                        <mxPoint x="780" y="1210" as="targetPoint"/>
                    </mxGeometry>
                </mxCell>
                <mxCell id="u55TkQMTREDT-roaiY3Z-5" value="" style="endArrow=classic;html=1;strokeWidth=3;fontSize=21;entryX=0.5;entryY=1;entryDx=0;entryDy=0;entryPerimeter=0;" parent="1" target="u55TkQMTREDT-roaiY3Z-2" edge="1">
                    <mxGeometry width="50" height="50" relative="1" as="geometry">
                        <mxPoint x="660" y="2040" as="sourcePoint"/>
                        <mxPoint x="710" y="1990" as="targetPoint"/>
                        <Array as="points">
                            <mxPoint x="1070" y="2040"/>
                        </Array>
                    </mxGeometry>
                </mxCell>
            </root>
        </mxGraphModel>
    </diagram>
    <diagram id="ae7PADsdG62YWQxN-UVC" name="自适应多目标协同优化算法在无人艇集群中的应用架构">
        <mxGraphModel dx="1386" dy="784" grid="1" gridSize="10" guides="1" tooltips="1" connect="1" arrows="1" fold="1" page="1" pageScale="1" pageWidth="850" pageHeight="1100" math="0" shadow="0">
            <root>
                <mxCell id="0"/>
                <mxCell id="1" parent="0"/>
                <mxCell id="7x2dVumxOnPDlq8ATkPT-5" value="" style="rounded=1;whiteSpace=wrap;html=1;fillColor=#dae8fc;strokeColor=#6c8ebf;" parent="1" vertex="1">
                    <mxGeometry x="52.5" y="1020" width="510" height="190" as="geometry"/>
                </mxCell>
                <mxCell id="7x2dVumxOnPDlq8ATkPT-1" value="" style="rounded=1;whiteSpace=wrap;html=1;fillColor=#dae8fc;strokeColor=#6c8ebf;" parent="1" vertex="1">
                    <mxGeometry x="67.5" y="320" width="495" height="460" as="geometry"/>
                </mxCell>
                <mxCell id="nW7fKe4UtYD9glTm6fJa-1" value="" style="rounded=1;whiteSpace=wrap;html=1;fillColor=#fff2cc;strokeColor=#d6b656;" parent="1" vertex="1">
                    <mxGeometry x="60" y="30" width="510" height="190" as="geometry"/>
                </mxCell>
                <mxCell id="6vnXJP9rgA3csFHSoE_0-1" value="&lt;font style=&quot;font-size: 25px;&quot;&gt;多目标协同优化算法&lt;/font&gt;" style="text;html=1;align=center;verticalAlign=middle;resizable=0;points=[];autosize=1;strokeColor=#6c8ebf;fillColor=#dae8fc;rounded=1;glass=0;shadow=0;labelBackgroundColor=none;labelBorderColor=none;fontColor=#FF3333;" parent="1" vertex="1">
                    <mxGeometry x="190" y="40" width="250" height="40" as="geometry"/>
                </mxCell>
                <mxCell id="6vnXJP9rgA3csFHSoE_0-2" value="适应性权重调整模块" style="rounded=1;whiteSpace=wrap;html=1;shadow=0;glass=0;labelBackgroundColor=none;labelBorderColor=none;sketch=0;fontSize=20;fillColor=#dae8fc;strokeColor=#6c8ebf;" parent="1" vertex="1">
                    <mxGeometry x="100" y="110" width="150" height="60" as="geometry"/>
                </mxCell>
                <mxCell id="6vnXJP9rgA3csFHSoE_0-3" value="非劣前沿解整合模块" style="rounded=1;whiteSpace=wrap;html=1;shadow=0;glass=0;labelBackgroundColor=none;labelBorderColor=none;sketch=0;fontSize=20;fillColor=#dae8fc;strokeColor=#6c8ebf;" parent="1" vertex="1">
                    <mxGeometry x="370" y="110" width="150" height="60" as="geometry"/>
                </mxCell>
                <mxCell id="6vnXJP9rgA3csFHSoE_0-4" value="算法权重调整模块" style="rounded=1;whiteSpace=wrap;html=1;shadow=0;glass=0;labelBackgroundColor=none;labelBorderColor=none;sketch=0;fontSize=20;fillColor=#dae8fc;strokeColor=#6c8ebf;" parent="1" vertex="1">
                    <mxGeometry x="90" y="350" width="170" height="60" as="geometry"/>
                </mxCell>
                <mxCell id="6vnXJP9rgA3csFHSoE_0-5" value="解整合与选择" style="rounded=1;whiteSpace=wrap;html=1;shadow=0;glass=0;labelBackgroundColor=none;labelBorderColor=none;sketch=0;fontSize=20;fillColor=#dae8fc;strokeColor=#6c8ebf;" parent="1" vertex="1">
                    <mxGeometry x="380" y="350" width="150" height="60" as="geometry"/>
                </mxCell>
                <mxCell id="6vnXJP9rgA3csFHSoE_0-6" value="目标定义与权重分配模块" style="rounded=1;whiteSpace=wrap;html=1;shadow=0;glass=0;labelBackgroundColor=none;labelBorderColor=none;sketch=0;fontSize=20;fillColor=#dae8fc;strokeColor=#6c8ebf;" parent="1" vertex="1">
                    <mxGeometry x="200" y="480" width="240" height="60" as="geometry"/>
                </mxCell>
                <mxCell id="6vnXJP9rgA3csFHSoE_0-7" value="多目标优化算法模块" style="rounded=1;whiteSpace=wrap;html=1;shadow=0;glass=0;labelBackgroundColor=none;labelBorderColor=none;sketch=0;fontSize=20;fillColor=#dae8fc;strokeColor=#6c8ebf;" parent="1" vertex="1">
                    <mxGeometry x="200" y="650" width="240" height="60" as="geometry"/>
                </mxCell>
                <mxCell id="7x2dVumxOnPDlq8ATkPT-2" value="集群控制与协调模块" style="rounded=1;whiteSpace=wrap;html=1;shadow=0;glass=0;labelBackgroundColor=none;labelBorderColor=none;sketch=0;fontSize=20;fillColor=#dae8fc;strokeColor=#6c8ebf;" parent="1" vertex="1">
                    <mxGeometry x="195" y="880" width="240" height="60" as="geometry"/>
                </mxCell>
                <mxCell id="7x2dVumxOnPDlq8ATkPT-3" value="传感器数据获取模块" style="rounded=1;whiteSpace=wrap;html=1;shadow=0;glass=0;labelBackgroundColor=none;labelBorderColor=none;sketch=0;fontSize=20;fillColor=#dae8fc;strokeColor=#6c8ebf;" parent="1" vertex="1">
                    <mxGeometry x="110" y="1080" width="150" height="60" as="geometry"/>
                </mxCell>
                <mxCell id="7x2dVumxOnPDlq8ATkPT-4" value="通信与信息共享模块" style="rounded=1;whiteSpace=wrap;html=1;shadow=0;glass=0;labelBackgroundColor=none;labelBorderColor=none;sketch=0;fontSize=20;fillColor=#dae8fc;strokeColor=#6c8ebf;" parent="1" vertex="1">
                    <mxGeometry x="360" y="1080" width="150" height="60" as="geometry"/>
                </mxCell>
                <mxCell id="4iGAxZF1tX00QL6bT2Kc-1" value="" style="rounded=1;whiteSpace=wrap;html=1;fillColor=#fff2cc;strokeColor=#d6b656;" parent="1" vertex="1">
                    <mxGeometry x="35" y="1320" width="570" height="200" as="geometry"/>
                </mxCell>
                <mxCell id="4iGAxZF1tX00QL6bT2Kc-2" value="" style="shape=image;html=1;verticalAlign=top;verticalLabelPosition=bottom;labelBackgroundColor=#ffffff;imageAspect=0;aspect=fixed;image=https://cdn4.iconfinder.com/data/icons/transportation-190/1000/ship_icebreaker_ship_iceboat_iceberg_icebreaker_ice_boat-128.png;" parent="1" vertex="1">
                    <mxGeometry x="45" y="1350" width="128" height="128" as="geometry"/>
                </mxCell>
                <mxCell id="4iGAxZF1tX00QL6bT2Kc-3" value="" style="shape=image;html=1;verticalAlign=top;verticalLabelPosition=bottom;labelBackgroundColor=#ffffff;imageAspect=0;aspect=fixed;image=https://cdn4.iconfinder.com/data/icons/transportation-190/1000/transportation_png_new_pt_collection_boat_pt_boat-128.png;" parent="1" vertex="1">
                    <mxGeometry x="173" y="1356" width="128" height="128" as="geometry"/>
                </mxCell>
                <mxCell id="4iGAxZF1tX00QL6bT2Kc-4" value="" style="shape=image;html=1;verticalAlign=top;verticalLabelPosition=bottom;labelBackgroundColor=#ffffff;imageAspect=0;aspect=fixed;image=https://cdn4.iconfinder.com/data/icons/transportation-190/1000/boat_tugboat_tug_seagoing_tugboats_harbour_tugboats_ship_river_tugboats-128.png;" parent="1" vertex="1">
                    <mxGeometry x="301" y="1350" width="128" height="128" as="geometry"/>
                </mxCell>
                <mxCell id="4iGAxZF1tX00QL6bT2Kc-5" value="" style="shape=image;html=1;verticalAlign=top;verticalLabelPosition=bottom;labelBackgroundColor=#ffffff;imageAspect=0;aspect=fixed;image=https://cdn4.iconfinder.com/data/icons/transportation-190/1000/transportation_transport_ferry_boat_train_ferry_boat_ship-128.png;" parent="1" vertex="1">
                    <mxGeometry x="435" y="1350" width="128" height="128" as="geometry"/>
                </mxCell>
                <mxCell id="4iGAxZF1tX00QL6bT2Kc-6" value="无人艇模块" style="rounded=1;whiteSpace=wrap;html=1;shadow=0;glass=0;labelBackgroundColor=none;labelBorderColor=none;sketch=0;fontSize=20;fillColor=#dae8fc;strokeColor=#6c8ebf;" parent="1" vertex="1">
                    <mxGeometry x="445" y="1320" width="150" height="60" as="geometry"/>
                </mxCell>
                <mxCell id="4iGAxZF1tX00QL6bT2Kc-7" value="" style="endArrow=classic;html=1;strokeWidth=3;fontSize=21;" parent="1" edge="1">
                    <mxGeometry width="50" height="50" relative="1" as="geometry">
                        <mxPoint x="319.5" y="220" as="sourcePoint"/>
                        <mxPoint x="320" y="320" as="targetPoint"/>
                    </mxGeometry>
                </mxCell>
                <mxCell id="4iGAxZF1tX00QL6bT2Kc-8" value="" style="endArrow=classic;html=1;strokeWidth=3;fontSize=21;" parent="1" edge="1">
                    <mxGeometry width="50" height="50" relative="1" as="geometry">
                        <mxPoint x="319.5" y="780" as="sourcePoint"/>
                        <mxPoint x="320" y="880" as="targetPoint"/>
                    </mxGeometry>
                </mxCell>
                <mxCell id="4iGAxZF1tX00QL6bT2Kc-9" value="" style="endArrow=classic;html=1;strokeWidth=3;fontSize=21;" parent="1" edge="1">
                    <mxGeometry width="50" height="50" relative="1" as="geometry">
                        <mxPoint x="319.5" y="940" as="sourcePoint"/>
                        <mxPoint x="320" y="1020" as="targetPoint"/>
                    </mxGeometry>
                </mxCell>
                <mxCell id="4iGAxZF1tX00QL6bT2Kc-10" value="" style="endArrow=classic;html=1;strokeWidth=3;fontSize=21;entryX=0.5;entryY=0;entryDx=0;entryDy=0;" parent="1" target="4iGAxZF1tX00QL6bT2Kc-1" edge="1">
                    <mxGeometry width="50" height="50" relative="1" as="geometry">
                        <mxPoint x="319.5" y="1210" as="sourcePoint"/>
                        <mxPoint x="320" y="1290" as="targetPoint"/>
                    </mxGeometry>
                </mxCell>
            </root>
        </mxGraphModel>
    </diagram>
</mxfile>